<?xml version="1.0" standalone="no"?>
<!DOCTYPE svg PUBLIC "-//W3C//DTD SVG 20010904//EN"
 "http://www.w3.org/TR/2001/REC-SVG-20010904/DTD/svg10.dtd">
<svg version="1.0" xmlns="http://www.w3.org/2000/svg"
 width="1084.000000pt" height="867.000000pt" viewBox="0 0 1084.000000 867.000000"
 preserveAspectRatio="xMidYMid meet">

<g transform="translate(0.000000,867.000000) scale(0.100000,-0.100000)"
fill="#000000" stroke="none">
<path d="M0 4335 l0 -4335 5420 0 5420 0 0 4335 0 4335 -5420 0 -5420 0 0
-4335z m8520 2475 c0 -5 8 -10 17 -10 14 0 13 -3 -6 -16 -14 -10 -26 -13 -30
-7 -3 6 -13 13 -21 16 -12 4 -11 6 3 6 9 1 17 6 17 11 0 6 5 10 10 10 6 0 10
-4 10 -10z m-5376 -110 c408 -30 728 -170 979 -429 113 -117 194 -236 260
-384 202 -453 158 -995 -113 -1412 -162 -248 -366 -421 -609 -516 -178 -70
-430 -114 -604 -107 l-77 3 112 37 c62 21 164 49 226 62 221 50 340 114 492
266 180 180 284 396 337 700 27 151 24 488 -5 652 -62 345 -166 562 -367 763
-185 185 -369 269 -648 295 -115 11 -303 1 -382 -21 -67 -18 -123 -57 -145
-98 -26 -52 -40 -175 -40 -356 l0 -150 -36 -61 c-20 -34 -52 -79 -72 -102 -34
-37 -43 -41 -98 -47 l-61 -7 -6 324 c-8 408 -17 452 -101 499 -32 18 -60 23
-143 27 l-103 5 0 29 0 30 158 -9 c199 -10 497 -8 672 4 188 14 217 14 374 3z
m5291 -20 c-3 -5 -10 -10 -16 -10 -5 0 -9 5 -9 10 0 6 7 10 16 10 8 0 12 -4 9
-10z m-185 -253 c10 -3 23 0 29 6 8 8 11 7 11 -5 0 -34 33 -29 82 12 57 49 61
42 13 -19 -41 -52 -46 -76 -13 -65 19 6 21 5 11 -8 -7 -8 -10 -24 -6 -36 4
-17 13 -22 42 -23 l36 -1 -37 -10 c-42 -11 -52 -41 -20 -64 16 -12 15 -13 -5
-14 -36 0 -39 -36 -6 -77 15 -19 37 -47 48 -62 19 -26 19 -26 0 -11 -11 8 -37
29 -58 47 -44 39 -47 39 -75 13 -13 -12 -28 -17 -38 -13 -24 9 -44 -22 -45
-71 -1 -38 -2 -37 -12 17 -9 57 -10 59 -38 55 -16 -3 -29 -1 -29 3 0 5 -8 13
-18 18 -15 8 -27 3 -56 -21 -50 -41 -57 -29 -12 24 l37 42 -23 18 c-13 10 -34
18 -48 18 l-25 1 28 15 c38 21 38 69 0 87 l-27 12 34 5 c22 4 34 11 32 19 -1
7 4 18 13 25 14 10 11 17 -21 54 -44 52 -38 66 11 23 37 -32 75 -41 75 -17 0
9 8 12 26 8 33 -6 43 10 45 68 l2 45 9 -57 c7 -41 15 -57 28 -61z m-5011 -255
c19 -9 43 -28 52 -42 20 -27 46 -116 38 -125 -3 -3 -21 3 -40 12 -23 12 -57
18 -105 18 -63 0 -80 -5 -156 -43 -96 -47 -141 -80 -308 -227 -138 -121 -192
-165 -202 -165 -5 0 -8 10 -8 23 0 12 -9 40 -20 62 l-20 38 38 46 c155 190
343 340 497 398 76 28 185 31 234 5z m5381 -32 c0 -5 -4 -10 -10 -10 -5 0 -10
5 -10 10 0 6 5 10 10 10 6 0 10 -4 10 -10z m-6965 -42 c121 -25 310 -140 442
-269 106 -104 113 -115 106 -182 -3 -31 -10 -57 -15 -57 -12 0 -68 39 -236
162 -74 54 -161 111 -195 128 -180 87 -369 77 -489 -29 -20 -17 -39 -31 -42
-31 -11 0 5 92 24 135 20 47 87 110 139 132 70 30 159 34 266 11z m7138 -21
c-3 -5 -10 -4 -15 1 -6 6 -7 16 -3 22 6 9 9 9 16 -1 4 -7 5 -17 2 -22z m-5405
-44 c24 -51 27 -70 27 -153 -1 -126 -25 -188 -107 -276 -110 -117 -270 -175
-528 -190 -146 -8 -296 2 -281 20 6 7 15 36 22 64 l11 52 98 0 c108 0 287 27
395 60 155 48 275 134 318 228 22 49 30 169 14 225 -12 45 2 31 31 -30z
m-2209 -143 c-22 -104 14 -229 89 -308 62 -65 121 -98 223 -123 120 -31 320
-23 509 20 74 17 146 31 160 31 21 0 17 -6 -30 -36 -91 -58 -270 -142 -350
-163 -157 -41 -303 -33 -423 23 -165 79 -258 260 -229 447 9 61 50 175 59 166
2 -2 -2 -28 -8 -57z m1251 -232 c12 -27 20 -65 20 -102 l0 -59 -106 -101 c-59
-56 -172 -179 -252 -274 -261 -312 -372 -423 -521 -524 -95 -65 -181 -103
-284 -128 -106 -26 -142 -26 -132 -2 5 9 8 28 9 41 1 22 -7 26 -99 50 -91 25
-195 64 -195 74 0 2 24 -2 53 -10 68 -18 278 -12 362 11 91 25 202 81 282 142
83 64 173 161 340 369 131 163 204 237 301 305 l62 44 0 82 c0 88 5 98 57 114
64 19 83 13 103 -32z m3340 -48 c136 -39 224 -93 335 -205 114 -114 167 -198
215 -342 138 -415 23 -835 -294 -1075 -99 -75 -197 -121 -313 -149 -120 -29
-341 -23 -448 11 -281 89 -491 324 -565 632 -52 216 -31 464 55 654 114 251
331 425 603 485 117 25 304 20 412 -11z m3815 -10 c39 -12 87 -31 108 -41 l37
-19 0 -148 c0 -81 -3 -157 -6 -169 -11 -40 -32 -25 -53 38 -42 124 -108 200
-221 253 -54 25 -80 31 -158 34 -179 8 -264 -57 -279 -211 -11 -118 39 -220
148 -304 30 -23 124 -82 210 -131 206 -118 264 -158 331 -231 74 -80 100 -145
106 -272 2 -54 -1 -120 -8 -152 -38 -185 -193 -347 -384 -402 -84 -25 -292
-17 -390 15 -96 30 -169 66 -209 103 l-35 32 -5 178 c-5 160 -4 177 11 177 12
0 34 -36 69 -108 29 -61 71 -129 97 -159 59 -65 163 -135 243 -162 118 -40
259 -21 325 43 60 59 73 97 73 221 0 100 -3 115 -27 166 -41 83 -122 153 -288
249 -195 112 -276 169 -349 245 -138 144 -165 325 -75 505 61 121 190 218 346
260 99 27 281 22 383 -10z m-1948 -22 c108 -51 137 -176 58 -255 -29 -29 -40
-33 -83 -33 -41 0 -58 6 -98 35 -118 85 -125 88 -178 93 -40 3 -62 -1 -94 -17
-49 -25 -138 -112 -182 -179 l-31 -47 3 -555 c3 -532 4 -557 23 -595 29 -57
85 -83 200 -90 156 -10 175 -14 175 -36 0 -18 -10 -19 -247 -20 -137 -1 -344
-3 -460 -4 l-213 -3 0 23 c0 21 6 23 68 30 88 9 146 35 167 74 8 17 20 75 25
129 13 134 13 977 -1 1082 -21 172 -68 197 -264 141 -55 -16 -103 -27 -107
-24 -25 14 8 39 145 107 83 41 189 96 235 121 46 25 96 45 112 45 69 0 122
-97 136 -251 4 -38 8 -69 9 -69 2 0 61 58 132 128 133 134 191 173 283 191 60
12 135 4 187 -21z m745 10 c3 -7 1 -119 -3 -248 -11 -340 -11 -1120 1 -1223
17 -146 41 -173 171 -190 72 -10 80 -13 77 -31 -3 -21 -7 -21 -383 -21 -374 0
-380 0 -383 20 -3 19 5 22 77 31 89 12 123 30 146 74 29 55 37 242 33 737 -4
411 -7 485 -21 529 -9 28 -26 59 -36 69 -42 37 -125 28 -263 -30 -14 -5 -18
-2 -18 15 0 21 69 57 500 262 42 20 96 23 102 6z m-5377 -299 c225 -144 359
-381 372 -660 7 -152 -12 -251 -74 -379 -85 -176 -240 -298 -445 -349 -138
-35 -255 -43 -458 -30 -213 13 -331 4 -455 -35 -210 -67 -370 -227 -431 -431
-21 -72 -24 -266 -5 -335 49 -173 135 -310 256 -408 22 -18 37 -32 33 -32 -16
0 -129 100 -177 155 -201 235 -227 597 -60 855 108 167 276 285 484 341 70 19
119 23 385 29 329 8 366 13 485 69 221 104 318 286 302 566 -11 187 -64 319
-175 437 -96 102 -235 193 -354 233 -20 7 -16 9 22 15 25 4 83 8 130 8 l85 2
80 -51z m-506 5 l61 -7 0 -562 0 -562 -97 -7 c-54 -4 -118 -9 -141 -13 l-44
-6 7 509 c7 479 9 512 28 557 22 54 68 97 101 97 13 0 51 -3 85 -6z m5523
-1908 c60 -37 61 -146 3 -263 -36 -73 -156 -213 -182 -213 -6 0 12 24 40 53
108 108 173 240 164 330 -5 61 -30 88 -88 94 -178 20 -507 -277 -668 -602 -65
-130 -84 -206 -79 -317 3 -79 6 -90 34 -125 86 -109 253 -112 423 -8 99 59
281 243 329 331 34 62 113 84 152 42 29 -31 27 -110 -4 -171 l-23 -47 23 0
c36 0 115 33 168 69 54 38 74 36 24 -2 -53 -40 -116 -68 -175 -77 -41 -7 -64
-18 -93 -44 -21 -19 -57 -40 -79 -47 -34 -10 -44 -9 -65 5 -28 17 -41 54 -33
86 3 13 -26 -8 -81 -56 -99 -86 -177 -135 -263 -164 -65 -22 -167 -26 -220 -9
-138 47 -190 211 -125 402 131 388 530 781 761 750 21 -3 47 -10 57 -17z
m-3569 3 c91 -41 57 -218 -64 -339 -67 -67 -77 -56 -12 13 111 117 146 268 71
308 -69 37 -207 -13 -329 -119 -132 -115 -220 -229 -292 -380 -39 -81 -42 -93
-42 -170 l0 -83 37 -35 c38 -34 53 -38 138 -35 80 4 271 129 354 234 28 35 56
49 56 28 0 -5 -43 -87 -95 -182 l-94 -174 27 -14 c15 -8 22 -16 15 -18 -7 -2
-20 0 -30 6 -17 8 -25 -1 -67 -70 -120 -200 -256 -326 -400 -371 -201 -61
-345 67 -253 225 79 134 358 247 608 247 l67 0 69 128 c39 70 68 129 67 131
-2 2 -23 -14 -46 -35 -149 -137 -309 -189 -409 -132 -46 26 -79 86 -79 144 0
221 274 579 520 681 60 25 144 30 183 12z m852 -116 c34 -33 3 -115 -94 -250
l-59 -81 52 -4 c28 -2 56 -3 61 -1 6 2 36 46 68 98 62 100 73 113 88 98 5 -5
-15 -47 -51 -103 l-60 -95 38 -7 c60 -11 209 -9 237 4 33 15 56 -2 35 -27 -9
-11 -25 -14 -64 -10 -28 2 -99 7 -157 10 l-105 5 -76 -127 c-135 -227 -172
-318 -148 -363 36 -68 239 61 336 212 24 37 51 68 59 68 23 0 18 -16 -24 -79
-48 -71 -71 -124 -71 -165 0 -64 41 -72 135 -28 92 44 180 123 238 214 27 43
56 78 63 78 21 0 17 -15 -21 -74 -19 -30 -48 -77 -65 -106 l-31 -52 81 74
c195 176 275 182 221 15 -43 -135 -38 -167 30 -167 63 0 116 35 229 150 58 59
124 117 147 129 55 28 123 28 148 1 10 -11 15 -23 11 -27 -4 -5 -12 0 -17 10
-25 43 -130 5 -211 -76 -51 -51 -105 -148 -93 -167 12 -19 70 -10 117 18 59
34 164 134 218 207 38 52 60 68 60 45 0 -5 -38 -81 -84 -167 -47 -87 -83 -159
-81 -161 7 -7 164 91 248 154 45 34 84 60 86 58 12 -11 -186 -155 -294 -214
-59 -31 -63 -36 -113 -134 -70 -137 -193 -348 -242 -412 -48 -63 -96 -102
-138 -110 -25 -5 -36 -1 -58 21 -25 25 -26 31 -21 86 3 37 16 82 34 117 41 83
202 242 336 331 l107 71 52 103 c29 56 55 106 57 112 2 5 -26 -18 -63 -51 -70
-63 -130 -99 -183 -110 -44 -9 -75 23 -66 68 l6 32 -45 -37 c-57 -47 -106 -67
-162 -67 -38 0 -48 4 -62 25 -19 29 -15 67 18 181 12 40 18 77 14 81 -17 18
-110 -50 -230 -169 -71 -70 -133 -125 -138 -122 -5 3 6 34 25 68 l33 63 -60
-44 c-77 -57 -124 -81 -173 -89 -74 -12 -114 51 -83 132 10 26 8 25 -32 -12
-82 -75 -168 -124 -220 -124 -10 0 -30 12 -45 26 -21 21 -24 31 -19 64 3 21 8
45 12 53 3 9 -19 2 -62 -19 -67 -34 -128 -43 -162 -25 -15 8 -17 4 -14 -29 14
-142 -169 -510 -264 -534 -33 -9 -64 17 -64 53 0 64 63 213 178 424 57 103 65
123 43 107 -118 -93 -217 -134 -263 -109 -32 17 -38 28 -38 75 0 69 104 254
129 229 7 -7 1 -24 -20 -55 -78 -116 -100 -184 -70 -221 18 -23 21 -23 67 -11
61 16 115 48 190 110 50 42 73 75 153 213 190 332 301 489 379 536 44 27 55
28 77 6z m-615 -352 c0 -22 -29 -36 -43 -22 -15 15 0 41 23 41 13 0 20 -7 20
-19z m3738 -507 c3 -22 -21 -39 -39 -28 -11 6 -12 38 -2 48 13 13 38 1 41 -20z
m-5650 -1298 c3 -66 3 -66 25 -51 29 20 80 19 106 -2 16 -14 22 -32 25 -83 5
-87 -3 -140 -20 -140 -11 0 -14 19 -14 83 0 91 -15 127 -53 127 -13 0 -33 -7
-45 -16 -20 -14 -22 -23 -22 -105 0 -82 -1 -89 -20 -89 -19 0 -20 7 -20 168 0
93 3 172 7 176 17 17 28 -6 31 -68z m1192 0 c5 -65 6 -67 25 -52 28 21 78 20
106 -3 22 -17 24 -28 27 -120 4 -97 3 -101 -17 -101 -20 0 -21 5 -21 87 0 66
-4 91 -17 105 -20 22 -51 23 -81 2 -20 -14 -22 -23 -22 -105 0 -82 -1 -89 -20
-89 -19 0 -20 7 -20 168 0 93 3 172 7 176 17 17 28 -6 33 -68z m1016 -76 c2
-181 0 -167 25 -173 12 -3 19 -12 17 -19 -7 -20 -43 -21 -62 -3 -13 14 -16 42
-16 181 0 152 1 165 18 162 15 -3 17 -19 18 -148z m2622 -12 c2 -146 4 -156
22 -161 11 -3 20 -10 20 -16 0 -20 -29 -24 -55 -7 -25 16 -25 17 -25 182 0
152 1 165 18 162 15 -3 17 -20 20 -160z m1642 -13 c0 -149 -2 -175 -15 -175
-8 0 -15 7 -15 16 0 13 -5 12 -26 -5 -47 -37 -112 -21 -139 34 -30 64 -12 160
34 185 28 14 74 12 97 -5 31 -23 33 -19 29 47 -4 67 -1 78 21 78 12 0 14 -29
14 -175z m-4692 148 c2 -8 -5 -13 -15 -13 -26 0 -43 -19 -43 -47 0 -19 5 -23
30 -23 20 0 30 -5 30 -15 0 -10 -10 -15 -30 -15 l-30 0 0 -105 c0 -94 -2 -105
-18 -105 -14 0 -17 7 -14 41 2 22 1 69 -3 105 -6 54 -10 64 -26 64 -10 0 -19
7 -19 15 0 9 9 15 25 15 23 0 25 4 25 40 0 33 4 42 23 50 29 12 59 8 65 -7z
m887 3 c19 -8 44 -30 55 -48 25 -41 25 -48 0 -48 -11 0 -20 5 -20 10 0 6 -11
22 -25 35 -31 32 -96 34 -124 6 -42 -42 -50 -145 -16 -211 20 -38 74 -56 112
-38 29 14 69 80 58 98 -3 5 -24 10 -46 10 -21 0 -39 5 -39 10 0 17 27 23 75
16 l45 -7 0 -80 c0 -64 -3 -79 -15 -79 -8 0 -15 6 -15 14 0 11 -8 10 -37 -5
-45 -23 -72 -24 -118 -5 -114 48 -110 283 5 323 47 16 64 16 105 -1z m220 -11
c0 -11 -8 -21 -17 -23 -14 -3 -18 3 -18 23 0 20 4 26 18 23 9 -2 17 -12 17
-23z m229 19 c24 -9 19 -24 -7 -24 -29 0 -47 -18 -47 -47 0 -19 5 -23 30 -23
20 0 30 -5 30 -15 0 -10 -10 -15 -30 -15 l-30 0 0 -105 c0 -87 -3 -105 -15
-105 -12 0 -15 18 -15 105 l0 105 -25 0 c-32 0 -34 27 -2 32 22 3 23 6 26 53
1 33 46 54 85 39z m349 -14 c4 -16 0 -20 -19 -20 -13 0 -24 6 -24 13 0 32 35
37 43 7z m-3583 -5 c0 -12 -13 -15 -55 -15 l-55 0 0 -150 c0 -127 -2 -150 -15
-150 -13 0 -15 23 -15 150 l0 150 -55 0 c-42 0 -55 3 -55 15 0 13 21 15 125
15 104 0 125 -2 125 -15z m4810 0 c0 -12 -16 -15 -85 -15 l-86 0 3 -57 3 -58
73 -3 c55 -2 72 -6 72 -17 0 -12 -16 -15 -75 -15 l-75 0 0 -60 0 -60 90 0 c73
0 90 -3 90 -15 0 -12 -19 -15 -107 -15 l-108 0 0 165 0 165 103 0 c84 0 102
-3 102 -15z m-3190 -40 c0 -32 2 -35 30 -35 20 0 30 -5 30 -15 0 -10 -10 -15
-30 -15 l-30 0 0 -83 c0 -86 8 -107 42 -107 10 0 18 -4 18 -9 0 -14 -40 -20
-66 -11 -23 9 -24 13 -24 110 0 93 -1 100 -20 100 -11 0 -20 7 -20 15 0 8 9
15 20 15 15 0 20 7 20 28 0 16 3 32 7 35 15 15 23 5 23 -28z m1770 1 c0 -30 4
-35 27 -38 39 -4 42 -28 4 -28 l-31 0 0 -90 0 -90 30 -6 c37 -8 39 -20 4 -28
-17 -5 -35 -1 -50 9 -23 14 -24 21 -24 110 0 88 -1 95 -20 95 -11 0 -20 7 -20
15 0 8 9 15 20 15 14 0 21 9 26 35 8 47 34 47 34 1z m2570 -1 c0 -32 2 -35 30
-35 20 0 30 -5 30 -15 0 -10 -10 -15 -30 -15 l-30 0 0 -90 c0 -65 4 -90 13
-92 6 0 18 -2 26 -2 25 -2 24 -26 -1 -27 -68 -4 -78 12 -78 123 0 81 -2 88
-20 88 -11 0 -20 7 -20 15 0 8 9 15 20 15 14 0 21 9 26 35 3 20 12 35 20 35 9
0 14 -12 14 -35z m-5420 -63 c49 -50 50 -152 1 -196 -25 -23 -89 -30 -121 -14
-53 28 -75 118 -44 183 29 61 115 76 164 27z m160 -62 c0 -77 3 -93 20 -110
24 -24 48 -25 78 -4 20 14 22 23 22 110 0 87 1 94 20 94 19 0 20 -7 20 -120 0
-100 -2 -120 -15 -120 -8 0 -15 7 -15 15 0 13 -6 11 -29 -6 -23 -17 -37 -20
-64 -15 -59 11 -72 35 -75 147 -4 95 -3 99 17 99 20 0 21 -5 21 -90z m430 79
c8 0 25 2 38 6 16 6 22 3 22 -8 0 -9 -9 -19 -20 -22 -15 -5 -20 -15 -20 -40 0
-46 -38 -75 -96 -75 -45 0 -67 -16 -43 -31 8 -5 37 -9 64 -9 63 0 95 -20 95
-61 0 -61 -69 -91 -160 -69 -68 16 -85 47 -49 86 16 18 20 28 12 31 -19 7 -16
27 6 47 19 17 19 18 0 37 -26 26 -24 65 6 95 23 23 31 25 78 20 29 -3 59 -6
67 -7z m900 -83 c0 -73 4 -98 16 -110 20 -20 53 -20 82 0 20 14 22 23 22 110
0 77 3 94 15 94 13 0 15 -20 15 -120 0 -100 -2 -120 -15 -120 -8 0 -15 7 -15
15 0 11 -5 10 -21 -6 -17 -17 -29 -20 -63 -16 -65 9 -76 31 -76 148 0 92 1 99
20 99 19 0 20 -7 20 -94z m980 -26 c0 -113 -1 -120 -20 -120 -19 0 -20 7 -20
120 0 113 1 120 20 120 19 0 20 -7 20 -120z m570 0 c0 -100 -2 -120 -15 -120
-12 0 -15 20 -15 120 0 100 3 120 15 120 13 0 15 -20 15 -120z m150 104 c0
-14 2 -14 22 0 34 24 85 20 113 -9 23 -22 25 -32 25 -120 0 -88 -1 -95 -20
-95 -19 0 -20 7 -20 89 0 104 -12 127 -63 117 -52 -11 -57 -21 -57 -117 0 -78
-2 -89 -17 -89 -16 0 -18 12 -17 113 1 61 2 115 3 120 2 14 31 7 31 -9z m430
5 c8 0 25 2 38 6 16 6 22 3 22 -9 0 -8 -10 -18 -23 -21 -19 -5 -23 -12 -19
-34 6 -43 -24 -72 -87 -79 -91 -12 -71 -42 27 -42 76 0 108 -62 56 -111 -22
-20 -35 -24 -89 -23 -74 1 -115 21 -115 59 0 13 10 31 23 40 15 12 18 19 10
22 -19 7 -16 40 4 52 17 9 17 10 0 28 -27 30 -22 78 10 103 23 18 36 21 78 16
27 -3 57 -6 65 -7z m1054 0 c24 -11 39 -37 50 -91 l6 -28 -91 0 c-79 0 -90 -2
-85 -16 3 -9 6 -20 6 -25 0 -18 41 -49 65 -49 14 0 34 9 45 20 18 18 50 28 50
14 0 -36 -62 -70 -113 -60 -67 13 -105 82 -87 161 16 72 85 105 154 74z m170
-45 c10 -31 25 -74 35 -97 l18 -41 34 97 c26 75 38 97 53 97 11 0 16 -5 13
-14 -3 -7 -23 -61 -44 -120 -32 -89 -41 -106 -59 -106 -18 0 -27 16 -59 108
-21 59 -40 113 -43 120 -2 7 4 12 15 12 15 0 24 -14 37 -56z m395 30 c18 -23
21 -41 21 -120 0 -77 -3 -94 -15 -94 -8 0 -15 7 -15 17 0 14 -2 14 -21 -3 -27
-24 -101 -26 -124 -3 -9 9 -17 30 -17 48 -2 47 27 71 95 78 50 5 57 8 57 27 0
12 -5 27 -12 34 -19 19 -73 14 -93 -8 -23 -25 -35 -25 -35 -1 0 30 39 51 91
51 39 0 51 -5 68 -26z m492 -3 c21 -22 29 -39 29 -65 l0 -36 -86 0 -86 0 6
-27 c14 -59 78 -81 117 -42 11 11 27 19 36 17 27 -5 -23 -56 -63 -64 -80 -15
-144 59 -129 149 16 92 113 130 176 68z m-1931 -186 c0 -31 -26 -85 -41 -85
-6 0 -6 7 1 20 7 14 7 25 -1 38 -16 25 -5 52 21 52 15 0 20 -7 20 -25z m2400
0 c0 -20 -5 -25 -25 -25 -20 0 -25 5 -25 25 0 20 5 25 25 25 20 0 25 -5 25
-25z"/>
<path d="M5310 5545 c-69 -20 -147 -71 -193 -127 -90 -111 -127 -250 -134
-503 -6 -198 4 -303 42 -456 65 -256 189 -435 357 -514 232 -109 494 -31 596
178 93 190 113 487 52 787 -67 330 -205 538 -410 621 -72 29 -230 36 -310 14z"/>
<path d="M8039 2684 l-24 -26 26 7 c37 9 45 -10 10 -25 -36 -14 -44 -43 -26
-86 13 -32 41 -54 68 -54 39 0 77 166 45 198 -21 21 -73 14 -99 -14z"/>
<path d="M7973 2589 c-25 -32 -53 -101 -53 -132 0 -65 41 -74 113 -26 26 17
47 34 47 38 0 4 -13 14 -29 24 -25 15 -50 52 -63 96 -3 11 -5 11 -15 0z"/>
<path d="M3940 2433 c-157 -28 -316 -95 -398 -168 -117 -105 -103 -232 30
-265 149 -38 332 82 489 319 38 57 69 108 69 113 0 8 -143 9 -190 1z"/>
<path d="M5233 3244 c-18 -14 -54 -53 -80 -87 -52 -67 -303 -479 -296 -486 5
-6 197 184 224 220 l19 27 -33 -8 c-17 -4 -40 -11 -50 -15 -13 -5 -16 -3 -11
9 4 9 29 20 66 27 58 12 62 14 108 76 83 114 113 171 114 216 1 51 -16 57 -61
21z"/>
<path d="M5077 2863 c-28 -32 -100 -105 -158 -163 -59 -58 -115 -117 -124
-132 -16 -26 -16 -28 9 -53 49 -49 165 -25 237 48 25 26 209 336 209 353 0 2
-27 4 -60 4 l-61 0 -52 -57z"/>
<path d="M4740 2473 c-54 -91 -192 -365 -210 -418 -22 -63 -26 -110 -10 -120
17 -10 70 25 101 68 70 95 152 288 165 388 7 52 -2 119 -15 119 -5 0 -19 -17
-31 -37z"/>
<path d="M6285 2237 c-212 -147 -335 -306 -335 -433 0 -109 86 -95 175 30 74
104 275 466 258 466 -4 -1 -48 -29 -98 -63z"/>
<path d="M9096 1028 c-9 -13 -16 -43 -16 -71 0 -102 99 -135 130 -43 14 43 -2
111 -30 126 -31 17 -68 12 -84 -12z"/>
<path d="M3081 1024 c-31 -39 -29 -107 4 -139 29 -30 55 -32 86 -6 20 16 24
29 24 74 0 40 -5 61 -19 76 -27 30 -70 27 -95 -5z"/>
<path d="M3682 1044 c-51 -36 5 -112 64 -85 29 13 42 57 23 76 -24 23 -62 27
-87 9z"/>
<path d="M3652 848 c-35 -35 0 -68 71 -68 69 0 103 58 44 74 -38 10 -102 7
-115 -6z"/>
<path d="M6714 1050 c-44 -17 -35 -84 12 -93 48 -9 74 8 74 48 0 29 -5 37 -26
45 -29 12 -32 12 -60 0z"/>
<path d="M6677 853 c-14 -13 -6 -53 12 -63 25 -13 87 -13 110 0 26 14 33 37
15 55 -16 15 -124 22 -137 8z"/>
<path d="M7778 1033 c-9 -10 -18 -27 -20 -38 -3 -18 3 -20 56 -23 70 -4 83 5
64 45 -17 35 -74 45 -100 16z"/>
<path d="M8343 949 c-52 -15 -56 -73 -5 -86 41 -10 76 16 80 60 3 33 1 37 -20
36 -13 0 -37 -5 -55 -10z"/>
<path d="M8824 1042 c-20 -13 -36 -54 -26 -64 5 -5 36 -8 68 -6 56 3 59 4 56
28 -1 14 -10 31 -19 38 -18 13 -62 16 -79 4z"/>
</g>
</svg>
