<?xml version="1.0" standalone="no"?>
<!DOCTYPE svg PUBLIC "-//W3C//DTD SVG 20010904//EN"
 "http://www.w3.org/TR/2001/REC-SVG-20010904/DTD/svg10.dtd">
<svg version="1.0" xmlns="http://www.w3.org/2000/svg"
 width="1085.000000pt" height="802.000000pt" viewBox="0 0 1085.000000 802.000000"
 preserveAspectRatio="xMidYMid meet">

<g transform="translate(0.000000,802.000000) scale(0.100000,-0.100000)"
fill="#000000" stroke="none">
<path d="M8248 6418 c-2 -14 -13 -25 -28 -29 -15 -4 -18 -7 -8 -8 10 -1 25
-12 34 -26 l17 -26 11 23 c6 12 22 25 36 29 25 6 24 6 -5 10 -22 3 -31 10 -33
27 -4 28 -20 29 -24 0z"/>
<path d="M2670 6300 c-91 -3 -292 -4 -447 -1 l-283 4 0 -30 0 -30 78 -5 c103
-8 155 -24 190 -62 53 -56 55 -75 60 -416 l4 -316 71 4 c68 3 74 5 106 40 18
20 50 60 71 87 l38 50 4 215 c4 240 9 263 71 317 20 18 53 37 74 42 129 36
370 39 528 6 259 -54 460 -187 621 -411 280 -390 327 -1059 106 -1499 -155
-311 -405 -485 -766 -534 -43 -6 -124 -26 -180 -43 -98 -31 -99 -32 -66 -41
51 -13 341 -2 440 18 117 23 290 80 380 125 256 129 488 403 596 705 73 205
101 464 71 660 -45 285 -152 500 -347 696 -160 160 -333 267 -545 338 -259 86
-397 99 -875 81z"/>
<path d="M8481 6236 c-9 -10 -8 -16 4 -26 21 -17 51 6 34 26 -6 8 -15 14 -19
14 -4 0 -13 -6 -19 -14z"/>
<path d="M7977 6160 c-24 -208 -31 -210 -190 -61 -53 50 -99 91 -102 91 -4 0
28 -37 70 -83 106 -116 132 -154 118 -175 -12 -20 -48 -29 -123 -31 -91 -2
-89 -17 4 -24 99 -8 113 -12 121 -38 8 -24 -16 -58 -129 -184 l-81 -90 103 95
c57 52 116 101 133 109 45 22 56 4 71 -119 l12 -105 8 90 c4 50 12 103 17 118
20 52 38 42 233 -133 l73 -65 -84 90 c-138 147 -164 192 -122 214 10 6 56 14
102 18 87 7 81 20 -9 22 -57 1 -112 25 -112 48 0 20 28 58 140 183 l75 85 -94
-88 c-51 -49 -111 -100 -132 -114 -61 -40 -72 -22 -88 139 l-7 73 -7 -65z"/>
<path d="M3001 5815 c-128 -36 -268 -135 -445 -313 l-99 -100 22 -30 c11 -17
21 -32 21 -35 0 -3 4 -17 10 -32 l10 -26 45 31 c25 17 103 78 175 136 233 187
302 224 413 224 48 0 72 -6 106 -25 24 -14 45 -24 46 -23 1 2 -3 28 -9 59 -13
64 -35 101 -72 125 -35 24 -154 28 -223 9z"/>
<path d="M8497 5788 c-5 -17 -15 -28 -30 -31 -21 -3 -21 -4 6 -15 18 -8 27
-19 28 -34 1 -22 1 -21 10 3 6 15 20 30 32 34 l22 8 -22 4 c-13 2 -26 16 -31
31 l-9 27 -6 -27z"/>
<path d="M1482 5759 c-94 -16 -174 -68 -203 -133 -18 -39 -28 -176 -13 -176 3
0 28 20 55 44 98 88 254 110 394 55 33 -13 149 -83 258 -156 109 -74 203 -131
208 -128 5 4 9 22 9 41 0 19 7 48 15 64 15 28 15 29 -53 90 -77 72 -218 172
-312 223 -125 68 -250 95 -358 76z"/>
<path d="M3327 5697 c27 -105 13 -173 -52 -245 -53 -59 -146 -110 -265 -146
-102 -31 -302 -66 -375 -66 -86 0 -114 -9 -122 -39 -3 -14 -14 -43 -25 -63
l-18 -38 27 -7 c16 -5 102 -8 193 -7 189 1 323 24 450 76 100 42 196 134 230
223 34 86 34 229 1 298 -13 26 -31 52 -40 57 -17 8 -17 6 -4 -43z"/>
<path d="M1212 5595 c-12 -15 -31 -52 -43 -83 -30 -81 -24 -213 14 -295 36
-80 127 -169 213 -209 60 -28 80 -32 173 -36 90 -3 121 0 205 22 139 36 407
169 384 191 -3 3 -55 -1 -116 -9 -331 -47 -505 -41 -629 19 -144 71 -218 219
-183 369 6 27 9 51 6 53 -2 2 -13 -8 -24 -22z"/>
<path d="M2278 5350 c-29 -29 -30 -34 -26 -96 l4 -66 -37 -24 c-72 -45 -196
-163 -309 -295 -214 -249 -316 -342 -445 -407 -160 -80 -370 -105 -547 -67
-29 7 -31 6 -20 -8 21 -25 152 -75 230 -88 65 -11 72 -14 72 -35 0 -12 -4 -26
-10 -29 -5 -3 -10 -11 -10 -17 0 -16 109 -1 198 28 231 75 396 208 730 587 91
103 190 207 221 230 83 64 113 111 114 183 0 91 -30 134 -94 134 -32 0 -47 -7
-71 -30z"/>
<path d="M5310 5310 c-79 -11 -218 -53 -285 -87 -215 -108 -364 -302 -422
-550 -27 -116 -24 -320 6 -433 101 -381 400 -613 791 -613 252 0 461 90 631
271 88 93 156 218 191 347 31 116 31 346 -1 460 -44 162 -140 315 -266 424
-70 61 -231 142 -325 165 -83 20 -236 27 -320 16z m120 -91 c85 -20 170 -69
241 -139 278 -278 339 -1021 104 -1256 -74 -74 -140 -98 -275 -97 -117 0 -185
19 -271 74 -155 99 -274 329 -310 596 -16 119 -7 418 15 498 49 176 142 283
279 320 62 16 155 18 217 4z"/>
<path d="M8954 5295 c-244 -53 -403 -257 -381 -489 17 -185 108 -283 404 -436
202 -105 309 -200 348 -309 21 -60 19 -166 -4 -216 -36 -81 -103 -115 -222
-115 -194 0 -369 124 -467 332 -38 80 -51 98 -67 96 -19 -3 -20 -9 -17 -168 2
-91 8 -177 13 -192 26 -65 190 -138 360 -160 80 -10 109 -9 193 6 291 49 460
248 444 521 -12 199 -106 304 -423 470 -257 134 -333 209 -350 341 -25 182
136 295 340 239 131 -35 224 -119 281 -252 24 -56 30 -63 56 -63 l28 0 -1 103
c-1 56 -4 131 -8 167 l-6 65 -55 22 c-129 51 -332 67 -466 38z"/>
<path d="M6480 5179 c-129 -66 -239 -124 -245 -130 -6 -6 -3 -15 7 -26 16 -15
20 -15 65 4 90 38 196 47 238 19 48 -32 50 -51 50 -646 0 -517 -1 -557 -18
-588 -22 -40 -60 -57 -144 -67 -61 -7 -63 -8 -63 -36 l0 -29 453 2 452 3 0 25
c0 24 -2 25 -110 36 -162 16 -193 23 -227 52 -58 49 -58 46 -58 584 0 452 2
495 18 519 41 62 100 123 150 160 48 33 63 39 108 39 54 0 75 -11 176 -95 79
-66 205 -21 223 79 23 121 -104 230 -249 212 -101 -12 -267 -119 -371 -240
-27 -30 -51 -53 -55 -51 -4 2 -10 28 -13 57 -11 108 -85 238 -135 238 -9 0
-123 -55 -252 -121z"/>
<path d="M7980 5231 c-63 -33 -181 -90 -262 -127 -128 -59 -148 -71 -148 -91
0 -30 20 -30 98 2 70 28 147 33 179 10 46 -32 48 -56 48 -620 0 -405 -3 -538
-13 -566 -21 -59 -51 -80 -136 -92 -74 -11 -76 -12 -76 -39 l0 -28 370 0 370
0 0 29 c0 27 -2 28 -61 35 -99 10 -141 42 -159 122 -5 21 -10 338 -10 704 0
514 -3 671 -13 690 -21 42 -59 36 -187 -29z"/>
<path d="M2670 5032 c0 -5 28 -24 63 -42 108 -57 223 -138 274 -194 57 -62
112 -163 142 -259 87 -286 -40 -587 -281 -666 -102 -33 -187 -42 -483 -51
-322 -9 -378 -19 -531 -95 -208 -102 -343 -288 -375 -516 -26 -192 33 -370
174 -524 52 -58 138 -125 159 -125 5 0 -27 35 -71 78 -65 65 -86 94 -124 173
-55 116 -71 179 -70 289 0 216 113 395 312 499 146 76 276 95 524 79 269 -18
466 12 640 98 157 77 248 183 303 350 26 80 29 102 29 219 0 142 -16 213 -76
341 -61 128 -185 256 -309 317 -60 30 -73 32 -182 35 -70 2 -118 0 -118 -6z"/>
<path d="M2378 5005 c-7 -5 -34 -34 -60 -62 l-48 -52 0 -486 0 -485 133 6 c72
3 138 7 145 10 9 3 12 116 12 523 l0 521 -27 5 c-16 3 -53 11 -85 18 -40 9
-60 10 -70 2z"/>
<path d="M4285 3259 c-112 -20 -223 -87 -340 -204 -188 -188 -273 -390 -216
-509 25 -50 52 -72 110 -85 80 -18 208 27 319 112 l63 48 -20 -40 c-12 -22
-39 -68 -60 -103 l-40 -62 -103 -2 c-325 -7 -609 -188 -559 -355 34 -113 192
-136 356 -51 86 44 228 184 295 290 37 59 49 70 65 65 31 -9 40 -9 45 2 3 6
-5 14 -17 20 -13 5 -23 14 -23 18 0 10 134 249 161 289 23 32 24 47 4 54 -9 4
-39 -19 -82 -63 -191 -194 -417 -255 -478 -127 -46 97 47 295 221 471 158 159
336 240 412 187 48 -33 16 -152 -66 -247 -23 -27 -42 -52 -42 -58 0 -40 88 50
130 135 72 143 10 241 -135 215z m-205 -877 c0 -22 -111 -165 -184 -238 -129
-128 -259 -179 -360 -140 -83 32 -98 113 -34 190 63 76 236 162 372 185 68 12
206 13 206 3z"/>
<path d="M7631 3240 c-206 -74 -455 -323 -567 -565 -115 -249 -67 -436 121
-475 123 -26 282 37 456 182 l47 38 5 -30 c4 -16 18 -37 32 -46 22 -14 32 -15
66 -5 21 7 54 25 72 40 21 19 48 30 82 35 62 8 191 82 184 105 -2 6 -32 -8
-66 -30 -35 -23 -79 -43 -102 -46 l-40 -5 25 47 c25 51 32 122 14 155 -13 23
-52 33 -86 20 -32 -12 -126 -107 -160 -162 -41 -65 -228 -199 -332 -238 -125
-47 -246 -32 -299 37 -55 72 -41 217 37 379 99 205 324 437 506 521 81 37 177
39 205 4 49 -60 9 -167 -107 -290 -70 -75 -87 -101 -64 -101 6 0 44 33 85 73
88 87 135 174 135 250 0 58 -22 105 -56 117 -41 16 -135 11 -193 -10z m285
-608 c6 -4 13 -15 17 -24 9 -26 -18 -117 -41 -141 -21 -20 -22 -20 -42 -2 -28
25 -28 95 0 113 11 7 20 17 20 23 0 5 -4 7 -10 4 -14 -9 -13 8 2 23 13 13 38
15 54 4z m-84 -189 l30 -31 -23 -15 c-55 -35 -79 -42 -95 -25 -19 19 -13 58
17 108 20 31 22 32 31 14 6 -10 24 -33 40 -51z"/>
<path d="M5118 3134 c-77 -65 -221 -258 -376 -504 -30 -47 -75 -107 -100 -133
-81 -83 -195 -147 -235 -131 -37 14 -13 101 57 205 32 48 34 55 20 69 -14 13
-18 11 -44 -20 -49 -59 -84 -138 -88 -201 -4 -53 -2 -58 23 -75 24 -15 33 -16
73 -5 25 6 74 32 109 56 35 24 63 43 63 41 0 -2 -29 -59 -65 -127 -102 -196
-138 -313 -116 -373 35 -89 139 -1 231 197 41 87 70 188 70 245 0 31 2 32 39
32 46 0 111 22 151 50 l29 20 -10 -32 c-14 -50 -11 -67 17 -95 22 -22 31 -24
66 -19 51 8 81 24 162 85 l64 49 -5 -33 c-9 -53 3 -82 38 -94 47 -16 102 2
182 60 l68 50 -27 -47 c-22 -37 -24 -48 -14 -54 19 -12 34 -2 125 82 129 121
235 192 235 159 0 -5 -11 -39 -25 -75 -46 -121 -27 -176 60 -176 52 0 91 17
153 67 l42 34 0 -40 c0 -30 5 -43 19 -51 49 -26 98 -3 195 89 63 61 67 63 44
26 -14 -22 -40 -69 -58 -104 -31 -57 -44 -70 -129 -127 -274 -182 -405 -361
-346 -473 34 -66 103 -53 190 35 52 53 156 215 240 373 l70 133 80 40 c105 53
265 158 265 175 0 7 -2 13 -4 13 -3 0 -40 -24 -83 -54 -88 -60 -233 -142 -233
-131 0 8 4 16 94 167 54 90 62 118 34 118 -7 0 -22 -10 -35 -22 -19 -18 -23
-19 -23 -5 0 25 -37 40 -78 32 -61 -11 -124 -50 -211 -130 -106 -98 -164 -135
-212 -135 -62 0 -68 19 -35 114 34 101 32 140 -6 144 -36 4 -73 -16 -168 -93
-44 -36 -82 -65 -85 -65 -2 0 20 37 51 82 51 77 58 107 22 93 -9 -4 -29 -24
-44 -46 -37 -54 -153 -162 -209 -194 -85 -50 -145 -49 -145 3 1 25 32 89 74
151 41 60 45 81 16 81 -12 0 -33 -21 -60 -60 -70 -102 -227 -214 -293 -208
-31 3 -32 4 -31 50 0 40 13 67 103 217 l102 171 129 -2 c102 -2 130 -6 130
-17 0 -8 6 -11 16 -7 9 3 17 6 20 6 8 0 35 62 30 68 -3 3 -17 0 -31 -6 -25
-12 -265 -17 -265 -7 0 3 20 36 45 73 47 70 59 116 28 110 -10 -2 -46 -44 -79
-93 l-61 -89 -44 3 c-24 1 -45 4 -47 6 -2 2 19 28 46 58 92 101 134 193 107
234 -22 33 -56 29 -107 -13z m82 -27 c0 -30 -62 -131 -123 -202 -44 -50 -52
-55 -89 -55 l-40 0 19 29 c10 16 58 79 106 140 89 113 127 139 127 88z m-220
-293 c0 -10 -118 -136 -158 -169 l-36 -30 44 65 c76 113 100 140 126 140 13 0
24 -3 24 -6z m160 -1 c0 -12 -152 -267 -174 -292 -38 -43 -117 -81 -168 -81
-45 0 -48 2 -63 37 l-15 36 157 153 158 153 53 0 c28 1 52 -2 52 -6z m1258
-224 c8 -44 -187 -223 -237 -217 -78 9 9 150 134 217 45 24 98 24 103 0z
m-1688 -200 c0 -78 -64 -236 -152 -376 -72 -113 -107 -99 -69 27 20 64 164
363 192 396 17 20 29 1 29 -47z m1449 -276 c-126 -223 -197 -320 -254 -347
-47 -23 -65 -9 -65 48 0 95 103 227 283 362 55 41 101 73 104 70 2 -2 -28 -62
-68 -133z"/>
<path d="M4570 2830 c-14 -26 -1 -44 26 -38 13 2 19 12 19 28 0 32 -30 38 -45
10z"/>
<path d="M8156 2397 c-26 -19 -17 -51 17 -55 31 -4 47 20 30 46 -13 22 -26 24
-47 9z"/>
<path d="M1878 1443 c-53 -16 -59 -24 -25 -38 22 -10 22 -14 25 -195 3 -208 0
-230 -28 -230 -11 0 -20 -7 -20 -15 0 -12 15 -15 75 -15 57 0 75 3 75 14 0 7
-9 16 -20 19 -18 5 -20 14 -20 110 0 98 2 107 22 121 31 22 71 20 94 -5 16
-18 19 -37 19 -116 0 -88 -2 -97 -22 -110 -38 -26 -26 -33 52 -33 57 0 75 3
75 14 0 7 -8 16 -18 19 -17 4 -20 19 -26 118 -4 62 -12 121 -17 132 -17 30
-70 48 -112 36 -20 -5 -39 -14 -42 -19 -18 -29 -25 0 -25 100 0 61 -3 110 -7
109 -5 -1 -29 -8 -55 -16z"/>
<path d="M3311 1445 c-46 -12 -68 -35 -33 -35 11 0 23 -7 26 -16 9 -22 7 -387
-2 -400 -4 -6 -16 -14 -26 -18 -37 -13 0 -27 64 -24 62 3 91 20 50 31 -19 5
-20 13 -20 110 0 98 2 107 22 121 31 22 71 20 93 -4 15 -17 18 -36 17 -118 -1
-85 -4 -99 -22 -111 -35 -24 -22 -31 55 -31 57 0 75 3 75 14 0 7 -8 16 -18 18
-16 5 -20 20 -26 118 -3 62 -11 121 -17 132 -17 31 -70 49 -112 37 -20 -5 -39
-14 -42 -19 -18 -29 -25 0 -25 100 0 61 -3 109 -7 109 -5 -1 -28 -7 -52 -14z"/>
<path d="M4005 1453 c-55 -14 -100 -71 -111 -141 -5 -33 -12 -44 -30 -48 -32
-8 -31 -34 1 -34 l25 0 0 -120 c0 -120 0 -121 -26 -130 -44 -17 -16 -30 67
-30 64 0 79 3 79 15 0 8 -8 15 -18 15 -36 0 -42 20 -42 137 l0 113 39 0 c42 0
63 16 40 31 -8 5 -29 9 -48 9 l-34 0 7 58 c8 75 33 99 78 76 52 -27 82 8 36
40 -23 16 -29 17 -63 9z"/>
<path d="M4471 1446 c-48 -12 -63 -30 -33 -38 16 -5 20 -19 25 -89 9 -108 9
-292 1 -314 -4 -9 -18 -21 -31 -26 -42 -16 -14 -29 62 -29 77 0 104 13 61 30
l-26 10 0 229 c0 126 -3 232 -7 234 -5 2 -28 -1 -52 -7z"/>
<path d="M5559 1437 c-38 -25 -79 -97 -79 -139 0 -21 -6 -29 -25 -34 -14 -3
-25 -12 -25 -20 0 -8 10 -14 25 -14 l25 0 0 -120 c0 -120 0 -121 -26 -130 -43
-17 -16 -30 61 -30 81 0 101 11 58 32 -28 13 -28 13 -31 131 l-3 117 66 0 65
0 0 -110 c0 -160 26 -198 111 -163 50 20 53 44 4 36 -31 -5 -36 -3 -45 21 -5
15 -10 70 -10 122 l0 94 39 0 c24 0 41 5 44 14 8 20 -2 26 -45 26 l-38 0 0 52
0 52 -30 -29 c-16 -16 -30 -39 -30 -51 0 -26 -22 -34 -84 -27 l-46 6 0 43 c0
85 34 121 84 88 31 -19 56 -12 56 15 0 43 -68 54 -121 18z"/>
<path d="M7498 1443 c-51 -14 -61 -27 -28 -36 19 -5 20 -14 20 -212 0 -198 -1
-207 -20 -212 -11 -3 -20 -12 -20 -19 0 -11 18 -14 74 -14 78 0 105 13 62 30
-14 5 -27 11 -28 12 -1 2 -4 107 -7 234 l-6 231 -47 -14z"/>
<path d="M9345 1450 c-11 -5 -32 -9 -47 -9 -34 -1 -38 -28 -5 -33 20 -3 22 -9
25 -69 l3 -67 -48 1 c-151 2 -238 -168 -142 -278 16 -18 46 -39 65 -45 30 -10
40 -9 75 9 47 25 49 25 49 6 0 -18 8 -18 66 -4 50 13 56 24 19 33 l-25 6 0
230 c0 127 -3 230 -7 229 -5 0 -17 -4 -28 -9z m-40 -226 c13 -13 15 -35 13
-112 -3 -93 -4 -97 -29 -109 -59 -28 -129 31 -129 109 0 47 22 102 47 117 27
16 79 13 98 -5z"/>
<path d="M1420 1381 c0 -27 -3 -56 -6 -65 -4 -10 -1 -16 8 -16 8 0 22 18 31
40 l15 40 56 0 56 0 0 -181 c0 -105 -4 -188 -10 -200 -6 -11 -21 -19 -35 -19
-16 0 -25 -6 -25 -15 0 -12 18 -15 100 -15 82 0 100 3 100 15 0 8 -9 15 -19
15 -46 0 -51 20 -51 216 l0 184 54 0 c57 0 70 -8 81 -53 4 -15 12 -26 17 -25
5 2 9 7 9 11 -1 4 -1 32 -1 63 l0 56 -27 -7 c-47 -12 -311 -16 -318 -5 -3 5
-13 10 -21 10 -10 0 -14 -13 -14 -49z"/>
<path d="M4963 1420 c-159 -32 -240 -201 -167 -349 57 -114 183 -154 343 -111
l36 9 -3 61 c-5 77 3 107 28 115 45 14 15 25 -70 25 -93 0 -115 -10 -57 -26
31 -9 32 -11 35 -73 3 -72 -5 -88 -53 -97 -66 -12 -149 35 -184 105 -63 126
-8 286 107 312 76 17 148 -17 167 -79 12 -41 29 -19 26 34 -1 27 -6 52 -9 56
-7 7 -127 29 -147 27 -5 -1 -29 -5 -52 -9z"/>
<path d="M5900 1400 c-16 -16 -18 -25 -10 -40 15 -27 27 -32 50 -20 26 14 26
56 0 70 -15 8 -24 6 -40 -10z"/>
<path d="M7070 1405 c0 -8 8 -15 18 -15 38 0 42 -18 42 -205 0 -192 -3 -205
-48 -205 -14 0 -22 -5 -19 -12 3 -10 46 -13 173 -13 l169 0 9 53 c9 56 1 79
-18 48 -33 -56 -52 -69 -107 -73 -83 -7 -94 6 -94 109 l0 83 47 3 c41 3 52 -1
72 -22 13 -15 27 -26 32 -26 5 0 7 29 6 65 -4 70 -12 80 -30 40 -11 -24 -16
-26 -70 -23 l-57 3 0 80 0 80 73 3 73 3 14 -36 c22 -51 37 -44 33 18 l-3 52
-157 3 c-136 2 -158 0 -158 -13z"/>
<path d="M5289 1394 c-17 -20 -1 -48 31 -52 30 -5 44 11 36 42 -7 30 -45 36
-67 10z"/>
<path d="M3692 1347 c-12 -13 -22 -34 -22 -48 0 -15 -8 -28 -22 -34 -32 -15
-35 -35 -4 -35 l26 0 0 -112 c0 -135 10 -162 60 -166 37 -2 84 16 81 33 0 6
-15 10 -31 10 -17 0 -35 7 -40 15 -5 8 -10 61 -10 118 l0 102 34 0 c33 0 62
20 49 33 -3 4 -24 7 -45 7 l-38 0 0 50 c0 56 -7 61 -38 27z"/>
<path d="M8638 1347 c-16 -15 -28 -36 -28 -49 0 -15 -9 -27 -22 -33 -13 -6
-23 -14 -23 -20 0 -5 10 -11 23 -13 21 -3 22 -7 23 -110 1 -130 7 -153 42
-170 24 -12 33 -11 64 5 47 23 57 48 17 39 -52 -11 -59 2 -62 124 l-4 110 35
0 c33 0 64 20 50 33 -3 4 -23 7 -44 7 l-38 0 -3 51 -3 51 -27 -25z"/>
<path d="M2323 1269 c-68 -20 -123 -111 -109 -182 16 -80 62 -128 137 -142
106 -20 197 94 168 209 -13 54 -58 102 -107 116 -42 11 -46 11 -89 -1z m75
-35 c35 -24 52 -68 52 -134 0 -71 -20 -117 -54 -126 -49 -12 -92 31 -108 108
-23 110 42 200 110 152z"/>
<path d="M3025 1265 c-22 -8 -41 -15 -42 -15 -1 0 -9 -13 -18 -30 -23 -45 -19
-94 12 -130 l27 -32 -27 -20 c-33 -24 -35 -52 -6 -72 l22 -15 -32 -37 c-26
-29 -31 -42 -26 -63 9 -37 36 -61 81 -71 106 -25 214 43 214 134 0 63 -23 80
-118 84 -43 2 -82 9 -89 14 -23 18 -2 36 48 40 87 9 141 69 121 134 -9 29 -8
34 7 34 17 0 41 18 41 31 0 3 -30 9 -67 12 -38 3 -77 8 -88 11 -11 3 -38 -1
-60 -9z m84 -41 c40 -51 18 -144 -34 -144 -55 0 -82 114 -36 151 31 25 46 24
70 -7z m54 -296 c19 -10 23 -49 7 -78 -25 -47 -127 -47 -162 1 -16 22 -17 29
-7 52 6 14 24 31 38 36 28 10 94 5 124 -11z"/>
<path d="M6219 1269 c-14 -3 -38 -14 -52 -24 -26 -17 -27 -17 -27 4 0 25 2 24
-56 10 -47 -12 -56 -24 -24 -34 18 -6 20 -15 20 -121 0 -114 0 -115 -26 -124
-43 -17 -16 -30 62 -30 53 0 74 4 74 13 0 7 -10 17 -22 22 -21 9 -23 17 -26
106 -3 95 -2 98 24 118 31 24 62 27 90 7 16 -12 19 -29 22 -120 l4 -106 -27
-10 c-43 -16 -18 -30 56 -30 52 0 69 3 69 14 0 7 -9 16 -19 19 -17 4 -20 16
-23 120 -3 105 -5 118 -26 140 -27 28 -56 36 -93 26z"/>
<path d="M6515 1269 c-84 -26 -113 -114 -59 -178 l26 -31 -26 -21 c-31 -25
-33 -42 -5 -70 l20 -20 -31 -36 c-25 -27 -30 -41 -25 -62 21 -93 173 -105 257
-21 38 38 49 80 32 125 -11 27 -60 45 -126 45 -71 0 -92 9 -82 33 4 12 18 17
46 17 89 0 152 66 130 137 -9 28 -8 33 7 33 19 0 41 18 41 35 0 6 -24 10 -57
10 -32 0 -71 3 -88 7 -16 3 -43 2 -60 -3z m79 -40 c5 -4 11 -31 14 -59 7 -79
-36 -114 -88 -72 -34 27 -34 106 -1 133 23 19 54 18 75 -2z m15 -289 c58 -16
68 -60 25 -101 -37 -34 -105 -32 -142 4 -22 23 -25 30 -16 54 6 19 21 32 44
40 44 15 48 15 89 3z"/>
<path d="M7730 1258 c-58 -29 -90 -84 -90 -153 0 -71 25 -115 82 -143 40 -20
52 -22 85 -13 43 12 102 65 84 75 -6 4 -21 0 -33 -8 -57 -40 -143 2 -155 77
l-6 37 55 0 c30 0 76 3 102 6 40 6 46 10 46 31 0 39 -27 79 -64 97 -44 21 -53
20 -106 -6z m98 -51 c7 -15 10 -32 7 -37 -7 -11 -135 -14 -135 -2 0 4 9 22 20
40 18 29 25 33 58 30 29 -2 40 -9 50 -31z"/>
<path d="M8375 1268 c-41 -14 -95 -56 -95 -73 0 -8 9 -19 20 -25 16 -9 22 -6
36 22 19 37 31 48 56 48 26 0 48 -28 48 -61 0 -26 -6 -32 -47 -49 -79 -32 -97
-44 -111 -72 -10 -23 -10 -33 2 -63 8 -19 16 -35 18 -35 2 0 18 -4 35 -9 25
-7 40 -5 69 9 36 19 37 19 61 0 23 -18 26 -18 59 -3 39 19 45 43 10 43 -30 0
-36 20 -36 132 0 76 -3 90 -22 111 -28 30 -63 38 -103 25z m63 -250 c-14 -29
-57 -34 -80 -10 -31 30 -18 63 34 89 l43 20 6 -41 c4 -22 2 -49 -3 -58z"/>
<path d="M8890 1269 c-86 -36 -130 -158 -87 -244 44 -90 152 -108 221 -36 31
33 20 52 -16 27 -27 -19 -87 -20 -108 -3 -28 22 -50 61 -50 89 0 27 2 28 54
28 29 0 75 3 101 7 l47 6 -6 36 c-11 69 -92 117 -156 90z m80 -48 c5 -11 10
-29 10 -40 0 -19 -6 -21 -66 -21 -63 0 -65 1 -58 23 11 37 35 57 70 57 23 0
37 -6 44 -19z"/>
<path d="M2583 1263 c-28 -5 -30 -19 -3 -26 18 -5 20 -14 20 -106 0 -125 14
-164 63 -180 28 -10 42 -9 70 2 19 8 38 20 41 26 4 6 12 11 17 11 6 0 8 -4 5
-8 -2 -4 -1 -14 4 -21 6 -11 17 -11 59 -1 51 12 69 30 31 30 -31 0 -40 38 -40
166 0 127 4 120 -72 108 -44 -8 -49 -19 -14 -28 29 -7 39 -53 34 -150 -3 -51
-7 -62 -30 -79 -22 -17 -33 -19 -55 -11 -42 15 -53 47 -53 167 l0 107 -27 -1
c-16 -1 -38 -4 -50 -6z"/>
<path d="M4073 1263 c-28 -5 -30 -20 -4 -28 17 -5 19 -18 22 -120 4 -108 6
-116 30 -141 34 -34 87 -36 128 -6 37 27 41 27 41 1 0 -19 4 -20 43 -14 64 11
78 21 45 34 l-28 11 0 136 0 137 -46 -7 c-26 -3 -53 -6 -60 -6 -8 0 -14 -4
-14 -10 0 -5 6 -10 14 -10 35 0 46 -29 46 -119 0 -71 -3 -91 -17 -104 -31 -27
-67 -30 -94 -9 -23 19 -24 27 -27 141 l-4 121 -26 -1 c-15 -1 -37 -4 -49 -6z"/>
<path d="M5288 1258 c-34 -9 -53 -28 -29 -28 5 0 17 -7 25 -16 12 -12 16 -37
16 -105 0 -93 -10 -129 -35 -129 -8 0 -15 -7 -15 -15 0 -12 15 -15 75 -15 57
0 75 3 75 14 0 7 -8 16 -18 18 -21 6 -32 80 -32 216 0 78 1 77 -62 60z"/>
<path d="M5888 1258 c-34 -9 -53 -28 -29 -28 5 0 17 -7 25 -16 12 -12 16 -37
16 -105 0 -93 -10 -129 -35 -129 -8 0 -15 -7 -15 -15 0 -12 15 -15 74 -15 78
0 105 13 62 30 l-26 10 0 140 c0 156 4 148 -72 128z"/>
<path d="M7920 1257 c0 -7 10 -17 21 -22 15 -7 38 -52 78 -149 31 -76 60 -139
66 -140 5 0 28 46 52 103 65 158 81 188 106 195 16 4 19 8 11 16 -15 15 -116
9 -122 -7 -2 -8 5 -13 17 -13 12 0 21 -4 21 -10 0 -15 -64 -180 -70 -180 -3 0
-20 40 -38 87 -29 77 -31 89 -17 99 32 24 16 34 -55 34 -50 0 -70 -4 -70 -13z"/>
<path d="M6763 1034 c-4 -11 3 -23 20 -36 35 -25 35 -62 0 -94 -34 -31 -23
-42 23 -21 84 41 73 167 -16 167 -11 0 -23 -7 -27 -16z"/>
<path d="M9480 1011 c-18 -35 18 -79 54 -65 22 8 31 51 16 69 -18 21 -57 19
-70 -4z"/>
</g>
</svg>
